# xmcd
#
# Track frame offsets:
#	150
#	72805
#	109965
#	167932
#	217620
#	266449
#	307366
#	329315
#
# Disc length: 4600 seconds
#
# Revision: 0
# Processed by: cddbd v1.5.2PL0 Copyright (c) Steve Scherf et al.
# Submitted via: audiograbber 1.83.01
#
DISCID=7311f608
DTITLE=Grateful Dead - 93-09-22 Madison Square Garden, New York NY
DYEAR=1900
DGENRE=
TTITLE0=Estimated Prophet
TTITLE1=Dark Star
TTITLE2=Drums
TTITLE3=Space
TTITLE4=Wharf Rat
TTITLE5=Throwing Stones
TTITLE6=Turn On Your Lovelight
TTITLE7=I Fought The Law
EXTD=
EXTT0=
EXTT1=
EXTT2=
EXTT3=
EXTT4=
EXTT5=
EXTT6=
EXTT7=
PLAYORDER=
